# xmcd
#
# Track frame offsets: 
#        150
#        10703
#        27110
#        37863
#        60400
#        82423
#        107575
#        114263
#        132486
#        145492
#        162973
#
# Disc length: 2580 seconds
#
# Revision: 0
# Processed by: cddbd v1.5.2PL0 Copyright (c) Steve Scherf et al.
# Submitted via: ExactAudioCopy v0.99pb4
#
DISCID=880a120b
DTITLE=Memphis Slim - M Slim Live in Montreux
DYEAR=1973
DGENRE=Blues
TTITLE0=01 I'm lost without you
TTITLE1=02 Whish me well
TTITLE2=03 Didn't we Babe
TTITLE3=04 Montreux Boogie
TTITLE4=05 Angel child
TTITLE5=06 The Watergate festival
TTITLE6=07 Baby please come home
TTITLE7=08 Everyday I have the blues
TTITLE8=09 All by myself
TTITLE9=10 Bye bye blues
TTITLE10=11 Lend me your love
EXTD=
EXTT0=
EXTT1=
EXTT2=
EXTT3=
EXTT4=
EXTT5=
EXTT6=
EXTT7=
EXTT8=
EXTT9=
EXTT10=
PLAYORDER=
